<svg height="512pt" viewBox="-31 0 512 512" width="512pt" xmlns="http://www.w3.org/2000/svg"><path d="m358.25 512h16.75c41.351562 0 75-33.648438 75-75v-362c0-41.351562-33.648438-75-75-75h-16.75c19.53125 19.078125 31.75 45.609375 31.75 75v362c0 29.390625-12.21875 55.921875-31.75 75zm0 0"/><path d="m91.515625 196h29.132813c1.296874-22.25 5.460937-43.648438 12.417968-61.433594-21.644531 13.34375-37.144531 35.425782-41.550781 61.433594zm0 0"/><path d="m180 121c-9.578125 0-26.265625 28.234375-29.355469 75h58.710938c-3.089844-46.765625-19.777344-75-29.355469-75zm0 0"/><path d="m180 301c9.578125 0 26.265625-28.234375 29.355469-75h-58.710938c3.089844 46.765625 19.777344 75 29.355469 75zm0 0"/><path d="m226.933594 134.566406c6.957031 17.785156 11.121094 39.183594 12.417968 61.433594h29.132813c-4.40625-26.007812-19.90625-48.089844-41.550781-61.433594zm0 0"/><path d="m226.933594 287.433594c21.648437-13.34375 37.148437-35.425782 41.550781-61.433594h-29.132813c-1.296874 22.25-5.460937 43.648438-12.417968 61.433594zm0 0"/><path d="m285 0h-210c-41.351562 0-75 33.648438-75 75v362c0 41.351562 33.648438 75 75 75h210c41.351562 0 75-33.648438 75-75v-362c0-41.351562-33.648438-75-75-75zm-60 452h-90c-8.289062 0-15-6.710938-15-15s6.710938-15 15-15h90c8.289062 0 15 6.710938 15 15s-6.710938 15-15 15zm30-60h-150c-8.289062 0-15-6.710938-15-15s6.710938-15 15-15h150c8.289062 0 15 6.710938 15 15s-6.710938 15-15 15zm-75-61c-66.167969 0-120-53.832031-120-120s53.832031-120 120-120 120 53.832031 120 120-53.832031 120-120 120zm0 0"/><path d="m91.515625 226c4.40625 26.007812 19.90625 48.089844 41.550781 61.433594-6.957031-17.785156-11.121094-39.183594-12.417968-61.433594zm0 0"/></svg>