<svg height="445pt" viewBox="0 -29 445.00121 445" width="445pt" xmlns="http://www.w3.org/2000/svg"><path d="m398.5 171.289062h-15.050781l-129.667969-121.320312c2.449219-4.796875 3.722656-10.105469 3.71875-15.492188-.011719-19.054687-15.46875-34.4882808-34.523438-34.476562-19.054687.0117188-34.488281 15.46875-34.476562 34.523438-.003906 5.367187 1.273438 10.660156 3.71875 15.4375l-129.667969 121.328124h-15.050781c-25.914062 0-47.5 21.335938-47.5 47.25v121c0 25.917969 21.585938 46.75 47.5 46.75h351c12.382812.023438 24.261719-4.902343 32.996094-13.683593 8.730468-8.777344 13.59375-20.683594 13.503906-33.066407v-121c0-25.914062-20.585938-47.25-46.5-47.25zm-260.699219 144.027344c-2 0-3.902343-.5625-5-2.664062l-13.699219-26.363282h-7.101562v23.625c0 3.199219-3.601562 4.800782-7.5 4.800782s-7.5-1.601563-7.5-4.800782v-63.597656c-.050781-1.292968.417969-2.550781 1.300781-3.496094.882813-.945312 2.105469-1.496093 3.398438-1.53125h20.699219c13.703124 0 24.601562 5.261719 24.601562 21.5625 0 11.199219-5.101562 17.679688-12.101562 20.382813l12.203124 22.140625c.335938.546875.507813 1.175781.5 1.820312 0 3.898438-5.203124 8.121094-9.800781 8.121094zm58.097657-43.027344c3 0 4.703124 2.902344 4.703124 6.101563 0 2.699219-1.402343 5.898437-4.703124 5.898437h-14.898438v17h26.699219c3 0 4.699219 2.902344 4.699219 6.601563 0 3.199219-1.398438 6.398437-4.699219 6.398437h-35.597657c-3.402343 0-7.101562-1.175781-7.101562-4.375v-63.5c0-3.199218 3.699219-5.121093 7.101562-5.121093h35.597657c3.300781 0 4.699219 3.699219 4.699219 6.902343 0 3.699219-1.699219 7.097657-4.699219 7.097657h-26.699219v17zm84.101562 37.625c0 3.199219-3.75 4.800782-7.648438 4.800782-3.601562 0-6.625-.699219-8.527343-4.199219l-18.824219-34.601563v34c0 3.199219-4.101562 4.796876-8 4.796876s-8-1.597657-8-4.796876v-63.5c0-3.300781 4-4.800781 7.898438-4.800781 5.601562 0 7.902343.5 11.703124 7.800781l16.398438 30.898438v-34c0-3.300781 3.601562-4.699219 7.5-4.699219s7.5 1.398438 7.5 4.699219zm64.398438-54.625h-13.398438v54.625c0 3.199219-4.101562 4.800782-8 4.800782s-8-1.601563-8-4.800782v-54.625h-13.800781c-3 0-4.699219-3.300781-4.699219-7.097656 0-3.300781 1.398438-6.902344 4.699219-6.902344h43.199219c3.300781 0 4.703124 3.601563 4.703124 6.902344 0 3.796875-1.703124 7.097656-4.703124 7.097656zm-261.367188-84 117.945312-110.339843c12.730469 10.714843 31.332032 10.703125 44.046876-.03125l117.949218 110.371093zm0 0"/><path d="m122.398438 255.289062h-10.398438v19h10.398438c5.601562 0 9-2.5 9-9.5s-3.398438-9.5-9-9.5zm0 0"/></svg>